<?xml version="1.0" encoding="UTF-8"?>
<!DOCTYPE svg PUBLIC "-//W3C//DTD SVG 1.1//EN" "http://www.w3.org/Graphics/SVG/1.1/DTD/svg11.dtd">
<!-- Creator: CorelDRAW 2020 (64-Bit) -->
<svg xmlns="http://www.w3.org/2000/svg" xml:space="preserve" width="186.013mm" height="397.933mm" version="1.1" style="shape-rendering:geometricPrecision; text-rendering:geometricPrecision; image-rendering:optimizeQuality; fill-rule:evenodd; clip-rule:evenodd"
viewBox="0 0 16023.68 34279.09"
 xmlns:xlink="http://www.w3.org/1999/xlink"
 xmlns:xodm="http://www.corel.com/coreldraw/odm/2003">
 <defs>
  <style type="text/css">
   <![CDATA[
    .str0 {stroke:#3E4095;stroke-width:17.23;stroke-miterlimit:22.9256;stroke-dasharray:34.457125 51.685688;stroke-opacity:0.658824}
    .fil0 {fill:#BBE0AD;fill-opacity:0.658824}
   ]]>
  </style>
   <clipPath id="id0">
    <rect width="16023.68" height="34279.09"/>
   </clipPath>
 </defs>
 <g id="Capa_x0020_1">
  <metadata id="CorelCorpID_0Corel-Layer"/>
  <g style="clip-path:url(#id0)">
   <image id="pngwing.com_x0020__x0028_30_x0029_.png" x="-0" y="-0.02" width="16023.7" height="34279.11" xlink:href="Mapa Argentina cuencas_Images\Mapa Argentina cuencas_ImgID1.png"/>
  </g>
  <path class="fil0 str0" d="M1477.95 13167.79c296.87,-115.21 352.01,156 867.66,212.02 344.55,1062.24 -695.62,2070.16 1261.54,2526.29 358.07,128.85 1221.09,858.44 925.42,1483.16 -168.78,844.17 -1117.28,-13.11 -1298.3,667.81 -134.38,505.51 -600.98,680.48 -1061.24,787.73 -269.71,62.86 -512.94,106.73 -674.69,167.33 -57.93,21.7 -469.9,271.76 -760.16,209.25 -210.91,-45.42 -144.84,-130.7 -116.92,-245.52 122.98,-22.67 85.56,-132.32 -26.81,-377.39 -6.95,-15.17 22.75,-76.9 21.25,-94.49 -18.93,-220.21 89.64,187.95 210.22,-266.1 26.7,-100.52 -33.89,-282.91 -60.7,-417.09 -23.68,-118.42 144.88,-82.11 246.75,-219.86 18.43,-24.94 239.38,57.3 207.41,-210.91 -10.72,-89.91 -85.03,-121.16 -112.29,-207.8 -85.98,-273.19 -136.8,-491.53 -239.3,-634.86 55.19,-96.83 -30.86,-432.76 -41.3,-663.91 -9.98,-221.74 45.59,-279.35 -3.39,-326.28 3.64,-49.7 56.98,-132.83 73,-223.55 270.32,-49.93 274.74,-89.3 265.79,-328.39 -4.19,-111.76 154,-64.43 174.62,-179.49 44.98,-250.89 -40.81,-549.65 -189.53,-758.69 84.07,-83.29 140.4,36.4 187.27,-561.73 5.82,-74.32 41.66,-297.92 143.7,-337.53z"/>
  <path class="fil0 str0" d="M1087.6 25821.14c296.87,-115.21 704.75,269.25 728.29,882.65 244.86,208.99 921.99,-28.15 1210.17,385.53 173.67,249.36 299.44,566.95 1035.57,738.52 358.06,128.85 1116.57,1825.2 820.89,2449.93 -104.6,517.07 787.41,927.91 1273.73,1622.74 299.44,427.87 1727.71,332.44 1164.34,1318.29 -284.75,498.3 -2750.26,747.84 -3334.42,448.03 -948.95,54.01 -989.77,-2680.3 -1604.41,-2680.67 -57.93,21.7 -375.97,-38.84 -659.99,-17.19 -144.38,30.23 -35.1,-55.73 -77.44,-125.72 -54.51,-90.12 -165.38,-171.81 -255.08,-215.6 122.99,-22.68 20.23,124.61 -92.14,-120.45 -6.95,-15.17 90.22,-243.67 82.24,-259.26 -57.91,-113.26 -180.29,21.7 -59.78,-432.3 26.65,-100.44 -16.5,-78.3 -43.26,-212.41 -23.63,-118.38 -210.02,100.75 -323.73,26.14 -103.52,66.52 -152.55,151.32 -108.31,146.21 -88.46,19.04 -152.56,-20.91 -152.56,-20.91 -85.95,-273.19 -111.79,-410.61 -214.28,-553.94 55.2,-96.83 -30.86,-432.76 -41.29,-663.91 -9.98,-221.74 45.58,-279.35 -3.4,-326.28 3.64,-49.7 56.99,-132.83 73,-223.55 270.32,-49.93 274.75,-89.3 265.79,-328.39 -4.19,-111.76 154.01,-64.43 174.62,-179.49 44.98,-250.89 -40.81,-549.65 -189.52,-758.69 84.06,-83.29 140.39,36.4 187.27,-561.73 5.81,-74.32 41.66,-297.92 143.7,-337.53z"/>
  <path class="fil0 str0" d="M6692.01 23322.43c130.5,290.47 -226.06,333.74 -166.61,877.51 -143.1,186.47 -923.4,-119.08 -1029.08,446.76 -387.32,13.83 605.03,358 465.71,845.45 -46.78,425.75 -1831.28,-251.19 -1893.9,99 -110.06,364.28 -410.57,35.99 -1049.83,-226.78 -627,-91.76 -396.14,439.94 -818.75,157.06 -63.33,-42.37 -116.98,-152.5 -298.87,-190.81 -47.53,-9.98 -497.03,-18.81 -620.51,-48.7 11.16,-136.52 -123.26,-148.96 -134.73,-299.85 86.52,-39.47 169.75,-136.02 162.98,-212.32 -6.03,-68.25 -210.41,-48.83 -129.76,-217.52 -71.71,-175.02 8.86,-185.53 137.47,-148.4 -13.67,-153.26 231.47,-206.35 128.08,-305.44 -107.21,-102.69 -154.53,-238.14 -531.08,-298.09 -27.32,-92.78 -27.17,-86.19 -56.49,-153.59 -6.06,-13.93 434.99,30.72 547.36,-26.34 60.88,-138.45 65.13,-301.79 84.48,-381.97 -193.13,70.95 -546.98,12.88 -536.32,-113.49 18.18,-214.88 41.3,-98.19 134.61,-316.8 -62.41,28.01 -229.23,-95.6 -94.86,-268.49 14.79,-7.71 308.82,201.63 326.28,199.21 218.93,-30.33 -183.03,99.3 276.68,196.1 101.77,21.44 280.77,-48.56 413.36,-82.31 117.03,-29.8 89.54,140.43 232.4,234.99 25.86,17.11 -44.78,242.03 221.41,196.16 89.22,-15.38 116.58,-91.22 201.68,-122.94 268.35,-100.07 483.75,-162.18 621.56,-271.99 99.57,50.08 430.56,-53.33 660.87,-75.76 220.91,-21.5 281.34,30.99 325.66,-20.36 49.81,1.05 135.61,50.01 227.04,61.27 63.92,267.36 103.47,269.73 341.77,248.36 111.39,-9.99 72.36,150.44 188.33,165.05 252.89,31.87 546.78,-69.34 747.81,-228.73 87.56,79.62 -29.04,142.09 570.71,157.81 74.52,1.95 299.68,26.11 344.55,125.96z"/>
  <path class="fil0 str0" d="M8531.81 1721.23c130.49,290.47 93.7,104.37 349.15,282.36 49.4,767.25 -910.43,59.54 -1841.18,742.04 -24.36,221.71 -284.57,979.56 -1271.44,1274.47 -304.82,796.64 -276.01,1897.88 -758.75,1868.91 -219.07,-298.44 -108.84,-1145.14 -465.75,-1461.86 -239.85,-786.92 -522.1,-1380.08 -1340.3,-1846.32 -71.73,-175.02 34.97,-91.88 63.44,-159.27 -13.69,-153.27 76.82,-132.32 62.76,-287.98 -13.35,-147.79 104.58,-266.45 146.08,-374.32 -27.31,-92.78 7.68,-129.75 -21.65,-197.14 -0.63,-1.45 359.72,-472.43 1111.85,-1035.96 10.16,6.71 73.66,76.87 165.77,88.09 144.89,-54.51 351.17,-27.47 512.83,-55.23 182.24,-31.29 73.74,1212.82 446.57,1146.7 176,68.23 -57.19,-862.32 9.09,-1059.43 119.77,103.07 244.22,729.38 312.46,667.07 29.7,200.85 148.13,-590.22 221.76,-632.79 137.52,-79.5 107.15,-192.18 177.6,-238.08 28.15,0.6 81.84,38.18 166.17,33.94 0.32,-0.53 19.51,-58.04 58.99,-59.38 176.41,-5.98 676.29,36.86 848.8,21.51 29,-2.58 -34.08,104.47 -29.28,179.18 -356.91,211.94 -1249.98,538.14 -1297.91,660.89 -238.69,611.08 1487.49,-221.79 1688.5,-381.16 87.56,79.61 223.47,290.18 287.65,462.64 25.96,69.81 351.93,261.26 396.8,361.12zm-3538.18 1874.92c1043.49,530.53 1147.75,-698.12 1135.08,-696.78 16.86,-422.16 -427.59,-847.85 -871.03,-859.26 -713.26,499.4 -580.74,1607.94 -264.04,1556.04z"/>
  <path class="fil0 str0" d="M2533.37 10457.56c100.99,-39.19 422.94,1421.81 1078.68,1544.66 500.06,363.59 762.19,210.38 840.59,500.01 196.47,520.07 -1279.19,421.76 -188.64,808.22 358.07,128.86 210.39,570.77 104.65,1203.1 -96.44,368.95 -58.25,500.88 -275.54,360.09 -530.5,-343.74 -972.86,-1418.17 -972.86,-1418.17 -818.97,-559.76 -1642.39,-1673.36 -586.89,-2997.92z"/>
 </g>
</svg>
